<svg xmlns="http://www.w3.org/2000/svg" width="900" height="520" viewBox="0 0 900 520">
<rect width="100%" height="100%" fill="white"/>
<line x1="80" y1="40" x2="80" y2="450" stroke="#111827"/>
<line x1="80" y1="450" x2="870" y2="450" stroke="#111827"/>
<text x="450.0" y="500" text-anchor="middle" font-family="sans-serif" font-size="16">Gradient step</text>
<text x="20" y="260.0" text-anchor="middle" transform="rotate(-90 20 260.0)" font-family="sans-serif" font-size="16">Loss</text>
<text x="80" y="24" font-family="sans-serif" font-size="18" font-weight="bold">Loss curves</text>
<text x="80.0" y="474" text-anchor="middle" font-family="sans-serif" font-size="12">100</text>
<text x="70" y="44.0" text-anchor="end" font-family="sans-serif" font-size="12">48.1</text>
<text x="238.0" y="474" text-anchor="middle" font-family="sans-serif" font-size="12">2080</text>
<text x="70" y="126.0" text-anchor="end" font-family="sans-serif" font-size="12">39.2</text>
<text x="396.0" y="474" text-anchor="middle" font-family="sans-serif" font-size="12">4060</text>
<text x="70" y="208.0" text-anchor="end" font-family="sans-serif" font-size="12">30.3</text>
<text x="554.0" y="474" text-anchor="middle" font-family="sans-serif" font-size="12">6040</text>
<text x="70" y="290.0" text-anchor="end" font-family="sans-serif" font-size="12">21.4</text>
<text x="712.0" y="474" text-anchor="middle" font-family="sans-serif" font-size="12">8020</text>
<text x="70" y="372.0" text-anchor="end" font-family="sans-serif" font-size="12">12.5</text>
<text x="870.0" y="474" text-anchor="middle" font-family="sans-serif" font-size="12">10000</text>
<text x="70" y="454.0" text-anchor="end" font-family="sans-serif" font-size="12">3.62</text>
<polyline points="80.0,40.0 88.0,429.1 96.0,435.5 103.9,436.0 111.9,438.8 119.9,439.7 127.9,441.0 135.9,441.5 143.8,441.8 151.8,441.9 159.8,442.7 167.8,441.7 175.8,443.2 183.7,444.5 191.7,444.6 199.7,443.5 207.7,443.3 215.7,444.3 223.6,444.9 231.6,444.0 239.6,445.3 247.6,443.4 255.6,443.6 263.5,444.8 271.5,446.0 279.5,446.3 287.5,446.8 295.5,445.7 303.4,445.8 311.4,446.4 319.4,446.9 327.4,446.6 335.4,447.0 343.3,447.2 351.3,445.9 359.3,445.7 367.3,446.7 375.3,445.9 383.2,446.3 391.2,445.8 399.2,445.0 407.2,446.7 415.2,446.8 423.1,446.7 431.1,445.9 439.1,446.4 447.1,448.0 455.1,445.2 463.0,445.6 471.0,447.9 479.0,447.5 487.0,446.2 494.9,447.3 502.9,447.4 510.9,448.5 518.9,447.1 526.9,446.4 534.8,447.1 542.8,447.5 550.8,447.4 558.8,447.3 566.8,448.5 574.7,448.4 582.7,448.1 590.7,447.6 598.7,447.5 606.7,447.3 614.6,448.3 622.6,448.7 630.6,448.8 638.6,447.0 646.6,448.3 654.5,448.1 662.5,449.1 670.5,448.8 678.5,448.3 686.5,447.5 694.4,449.3 702.4,450.0 710.4,447.6 718.4,448.1 726.4,447.6 734.3,448.3 742.3,448.8 750.3,448.7 758.3,448.4 766.3,447.1 774.2,448.3 782.2,448.2 790.2,449.2 798.2,448.9 806.2,448.1 814.1,448.5 822.1,446.8 830.1,448.6 838.1,449.1 846.1,447.9 854.0,447.7 862.0,448.0 870.0,448.1" fill="none" stroke="#2563eb" stroke-width="2"/>
<polyline points="151.8,442.5 231.6,445.0 311.4,445.4 391.2,446.8 471.0,447.2 550.8,446.7 630.6,448.6 710.4,447.9 790.2,448.2 870.0,448.6" fill="none" stroke="#dc2626" stroke-width="2"/>
<line x1="690" y1="24" x2="720" y2="24" stroke="#2563eb" stroke-width="3"/>
<text x="728" y="29" font-family="sans-serif" font-size="13">train</text>
<line x1="790" y1="24" x2="820" y2="24" stroke="#dc2626" stroke-width="3"/>
<text x="828" y="29" font-family="sans-serif" font-size="13">validation</text>
</svg>