<svg xmlns="http://www.w3.org/2000/svg" width="900" height="520" viewBox="0 0 900 520">
<rect width="100%" height="100%" fill="white"/>
<line x1="80" y1="40" x2="80" y2="450" stroke="#111827"/>
<line x1="80" y1="450" x2="870" y2="450" stroke="#111827"/>
<text x="450.0" y="500" text-anchor="middle" font-family="sans-serif" font-size="16">Wall-clock time (seconds)</text>
<text x="20" y="260.0" text-anchor="middle" transform="rotate(-90 20 260.0)" font-family="sans-serif" font-size="16">Loss</text>
<text x="80" y="24" font-family="sans-serif" font-size="18" font-weight="bold">Loss curves</text>
<text x="80.0" y="474" text-anchor="middle" font-family="sans-serif" font-size="12">10</text>
<text x="70" y="44.0" text-anchor="end" font-family="sans-serif" font-size="12">4.19</text>
<text x="238.0" y="474" text-anchor="middle" font-family="sans-serif" font-size="12">187</text>
<text x="70" y="126.0" text-anchor="end" font-family="sans-serif" font-size="12">4</text>
<text x="396.0" y="474" text-anchor="middle" font-family="sans-serif" font-size="12">363</text>
<text x="70" y="208.0" text-anchor="end" font-family="sans-serif" font-size="12">3.8</text>
<text x="554.0" y="474" text-anchor="middle" font-family="sans-serif" font-size="12">539</text>
<text x="70" y="290.0" text-anchor="end" font-family="sans-serif" font-size="12">3.6</text>
<text x="712.0" y="474" text-anchor="middle" font-family="sans-serif" font-size="12">715</text>
<text x="70" y="372.0" text-anchor="end" font-family="sans-serif" font-size="12">3.41</text>
<text x="870.0" y="474" text-anchor="middle" font-family="sans-serif" font-size="12">892</text>
<text x="70" y="454.0" text-anchor="end" font-family="sans-serif" font-size="12">3.21</text>
<polyline points="80.0,68.1 86.6,148.8 92.3,40.0 97.4,80.9 102.2,178.8 107.3,156.8 112.0,164.3 116.4,85.2 121.1,123.6 126.1,111.2 130.7,65.7 135.3,118.2 140.2,54.8 144.8,71.3 149.5,124.1 154.6,151.2 159.6,112.6 164.3,108.8 169.6,69.8 175.4,85.2 181.2,122.4 185.6,105.6 190.9,137.2 196.0,165.9 200.5,142.9 204.7,180.8 209.1,108.6 213.0,170.0 217.3,150.9 221.2,188.4 225.1,153.1 228.9,111.6 232.8,55.3 236.2,181.2 239.8,141.5 243.7,164.3 247.4,146.5 251.5,82.3 255.6,178.6 259.7,207.6 264.1,112.7 268.3,205.0 272.3,230.6 276.5,235.4 280.7,213.8 284.7,163.9 288.7,217.6 293.4,178.0 297.4,223.5 302.2,238.8 306.7,215.7 311.4,256.7 316.3,178.1 321.1,208.1 325.3,245.7 329.8,239.3 334.5,224.2 338.8,225.2 343.5,167.5 348.0,265.2 352.7,224.6 357.0,246.2 361.3,253.5 365.8,229.8 370.0,285.5 374.0,247.4 378.3,288.0 382.0,231.2 386.1,212.1 391.4,321.5 395.7,258.1 400.0,210.8 404.6,235.5 408.7,264.6 412.6,239.1 416.6,190.7 420.3,215.9 424.2,309.4 428.0,284.9 431.9,232.5 436.1,286.9 440.1,181.4 443.8,259.7 447.8,291.7 451.6,265.7 455.2,304.1 458.6,268.4 462.3,296.1 465.8,327.2 469.5,312.4 473.1,302.8 476.6,290.4 480.4,267.5 483.8,284.9 487.7,352.8 491.4,242.0 495.2,340.1 498.8,313.6 503.0,293.3 506.8,368.0 511.1,303.1 515.0,360.1 519.0,319.7 522.7,333.9 526.8,292.9 531.0,361.7 535.0,316.7 539.1,326.8 543.0,328.6 547.3,257.3 551.2,331.1 555.0,350.9 558.8,272.0 563.0,309.7 567.1,282.7 571.0,351.9 574.8,361.4 578.7,304.5 582.9,341.2 586.8,308.9 591.0,314.8 594.9,342.0 598.7,315.3 602.6,283.8 606.4,277.2 610.2,346.8 614.0,310.9 618.2,365.4 621.9,345.9 625.6,324.7 629.4,322.4 633.0,314.3 636.4,342.0 639.9,346.1 643.6,311.4 647.3,359.3 650.6,376.5 654.4,339.6 658.1,390.5 661.7,392.0 665.7,374.7 669.1,376.4 672.5,393.2 675.9,325.4 679.5,375.2 682.6,319.7 686.0,356.5 689.6,315.0 693.2,439.6 696.7,354.9 700.4,381.6 704.0,379.8 707.3,384.1 710.7,375.0 713.8,432.6 717.0,336.8 720.7,414.4 724.5,359.3 728.1,383.2 732.1,418.4 736.1,365.9 739.9,333.1 743.8,351.5 747.3,373.1 751.2,370.5 754.7,442.5 758.3,322.8 762.2,371.4 765.8,416.9 769.4,371.9 772.7,365.6 776.3,341.2 779.9,386.0 783.4,381.0 786.9,405.7 790.5,337.4 794.2,384.3 797.5,440.7 801.1,419.7 804.6,414.0 808.3,450.0 812.1,388.6 815.3,317.7 818.5,396.6 821.7,342.8 824.7,331.8 827.9,406.2 831.1,385.1 834.6,361.3 837.9,410.6 841.1,358.5 844.3,415.8 847.4,394.0 850.6,355.8 854.0,419.9 857.1,382.6 860.2,387.0 863.5,375.6 866.7,365.7 870.0,364.8" fill="none" stroke="#2563eb" stroke-width="2"/>
<polyline points="126.1,117.2 175.4,64.0 221.2,115.6 259.7,182.7 302.2,196.7 348.0,253.4 391.4,269.6 431.9,271.1 469.5,282.1 506.8,312.5 547.3,296.3 586.8,356.1 625.6,344.8 661.7,364.0 696.7,359.9 732.1,376.4 769.4,387.6 804.6,377.3 837.9,397.0 870.0,387.0" fill="none" stroke="#dc2626" stroke-width="2"/>
<line x1="690" y1="24" x2="720" y2="24" stroke="#2563eb" stroke-width="3"/>
<text x="728" y="29" font-family="sans-serif" font-size="13">train</text>
<line x1="790" y1="24" x2="820" y2="24" stroke="#dc2626" stroke-width="3"/>
<text x="828" y="29" font-family="sans-serif" font-size="13">validation</text>
</svg>