<svg xmlns="http://www.w3.org/2000/svg" width="900" height="520" viewBox="0 0 900 520">
<rect width="100%" height="100%" fill="white"/>
<line x1="80" y1="40" x2="80" y2="450" stroke="#111827"/>
<line x1="80" y1="450" x2="870" y2="450" stroke="#111827"/>
<text x="450.0" y="500" text-anchor="middle" font-family="sans-serif" font-size="16">Gradient step</text>
<text x="20" y="260.0" text-anchor="middle" transform="rotate(-90 20 260.0)" font-family="sans-serif" font-size="16">Loss</text>
<text x="80" y="24" font-family="sans-serif" font-size="18" font-weight="bold">Loss curves</text>
<text x="80.0" y="474" text-anchor="middle" font-family="sans-serif" font-size="12">2050</text>
<text x="70" y="44.0" text-anchor="end" font-family="sans-serif" font-size="12">4.19</text>
<text x="238.0" y="474" text-anchor="middle" font-family="sans-serif" font-size="12">4040</text>
<text x="70" y="126.0" text-anchor="end" font-family="sans-serif" font-size="12">4</text>
<text x="396.0" y="474" text-anchor="middle" font-family="sans-serif" font-size="12">6030</text>
<text x="70" y="208.0" text-anchor="end" font-family="sans-serif" font-size="12">3.8</text>
<text x="554.0" y="474" text-anchor="middle" font-family="sans-serif" font-size="12">8020</text>
<text x="70" y="290.0" text-anchor="end" font-family="sans-serif" font-size="12">3.6</text>
<text x="712.0" y="474" text-anchor="middle" font-family="sans-serif" font-size="12">10010</text>
<text x="70" y="372.0" text-anchor="end" font-family="sans-serif" font-size="12">3.41</text>
<text x="870.0" y="474" text-anchor="middle" font-family="sans-serif" font-size="12">12000</text>
<text x="70" y="454.0" text-anchor="end" font-family="sans-serif" font-size="12">3.21</text>
<polyline points="80.0,68.1 84.0,148.8 87.9,40.0 91.9,80.9 95.9,178.8 99.8,156.8 103.8,164.3 107.8,85.2 111.8,123.6 115.7,111.2 119.7,65.7 123.7,118.2 127.6,54.8 131.6,71.3 135.6,124.1 139.5,151.2 143.5,112.6 147.5,108.8 151.5,69.8 155.4,85.2 159.4,122.4 163.4,105.6 167.3,137.2 171.3,165.9 175.3,142.9 179.2,180.8 183.2,108.6 187.2,170.0 191.2,150.9 195.1,188.4 199.1,153.1 203.1,111.6 207.0,55.3 211.0,181.2 215.0,141.5 218.9,164.3 222.9,146.5 226.9,82.3 230.9,178.6 234.8,207.6 238.8,112.7 242.8,205.0 246.7,230.6 250.7,235.4 254.7,213.8 258.6,163.9 262.6,217.6 266.6,178.0 270.6,223.5 274.5,238.8 278.5,215.7 282.5,256.7 286.4,178.1 290.4,208.1 294.4,245.7 298.3,239.3 302.3,224.2 306.3,225.2 310.3,167.5 314.2,265.2 318.2,224.6 322.2,246.2 326.1,253.5 330.1,229.8 334.1,285.5 338.0,247.4 342.0,288.0 346.0,231.2 349.9,212.1 353.9,321.5 357.9,258.1 361.9,210.8 365.8,235.5 369.8,264.6 373.8,239.1 377.7,190.7 381.7,215.9 385.7,309.4 389.6,284.9 393.6,232.5 397.6,286.9 401.6,181.4 405.5,259.7 409.5,291.7 413.5,265.7 417.4,304.1 421.4,268.4 425.4,296.1 429.3,327.2 433.3,312.4 437.3,302.8 441.3,290.4 445.2,267.5 449.2,284.9 453.2,352.8 457.1,242.0 461.1,340.1 465.1,313.6 469.0,293.3 473.0,368.0 477.0,303.1 481.0,360.1 484.9,319.7 488.9,333.9 492.9,292.9 496.8,361.7 500.8,316.7 504.8,326.8 508.7,328.6 512.7,257.3 516.7,331.1 520.7,350.9 524.6,272.0 528.6,309.7 532.6,282.7 536.5,351.9 540.5,361.4 544.5,304.5 548.4,341.2 552.4,308.9 556.4,314.8 560.4,342.0 564.3,315.3 568.3,283.8 572.3,277.2 576.2,346.8 580.2,310.9 584.2,365.4 588.1,345.9 592.1,324.7 596.1,322.4 600.1,314.3 604.0,342.0 608.0,346.1 612.0,311.4 615.9,359.3 619.9,376.5 623.9,339.6 627.8,390.5 631.8,392.0 635.8,374.7 639.7,376.4 643.7,393.2 647.7,325.4 651.7,375.2 655.6,319.7 659.6,356.5 663.6,315.0 667.5,439.6 671.5,354.9 675.5,381.6 679.4,379.8 683.4,384.1 687.4,375.0 691.4,432.6 695.3,336.8 699.3,414.4 703.3,359.3 707.2,383.2 711.2,418.4 715.2,365.9 719.1,333.1 723.1,351.5 727.1,373.1 731.1,370.5 735.0,442.5 739.0,322.8 743.0,371.4 746.9,416.9 750.9,371.9 754.9,365.6 758.8,341.2 762.8,386.0 766.8,381.0 770.8,405.7 774.7,337.4 778.7,384.3 782.7,440.7 786.6,419.7 790.6,414.0 794.6,450.0 798.5,388.6 802.5,317.7 806.5,396.6 810.5,342.8 814.4,331.8 818.4,406.2 822.4,385.1 826.3,361.3 830.3,410.6 834.3,358.5 838.2,415.8 842.2,394.0 846.2,355.8 850.2,419.9 854.1,382.6 858.1,387.0 862.1,375.6 866.0,365.7 870.0,364.8" fill="none" stroke="#2563eb" stroke-width="2"/>
<polyline points="115.7,117.2 155.4,64.0 195.1,115.6 234.8,182.7 274.5,196.7 314.2,253.4 353.9,269.6 393.6,271.1 433.3,282.1 473.0,312.5 512.7,296.3 552.4,356.1 592.1,344.8 631.8,364.0 671.5,359.9 711.2,376.4 750.9,387.6 790.6,377.3 830.3,397.0 870.0,387.0" fill="none" stroke="#dc2626" stroke-width="2"/>
<line x1="690" y1="24" x2="720" y2="24" stroke="#2563eb" stroke-width="3"/>
<text x="728" y="29" font-family="sans-serif" font-size="13">train</text>
<line x1="790" y1="24" x2="820" y2="24" stroke="#dc2626" stroke-width="3"/>
<text x="828" y="29" font-family="sans-serif" font-size="13">validation</text>
</svg>